# xmcd
#
# Track frame offsets:
#	150
#	13232
#	25376
#	37253
#	42162
#	53220
#	67371
#	80271
#	93055
#	107139
#	127806
#	147273
#	162927
#	166985
#	178318
#	192128
#	206845
#	215104
#	223753
#	235303
#	252057
#	265265
#	285072
#	293622
#	297228
#	310364
#	323658
#
# Disc length: 4429 seconds
#
# Revision: 1
# Processed by: cddbd v1.5.2PL0 Copyright (c) Steve Scherf et al.
# Submitted via: EZCDAudioConverter 2.1.7.1
#
DISCID=9a114b1b
DTITLE=Cream - Fresh Cream 3/3
DYEAR=1900
DGENRE=
TTITLE0=The Coffee Song [Early Version]
TTITLE1=You Make Me Feel [Session Outtake]
TTITLE2=Beauty Queen [Session Outtake]
TTITLE3=Wrapping Paper [Early Version]
TTITLE4=Cat's Squirrel [Early Version]
TTITLE5=I Feel Free [Early Version]
TTITLE6=I Feel Free [Mono Mix With No Lead Vocal]
TTITLE7=I Feel Free [Alternate Mono Mix]
TTITLE8=Sweet Wine [Early Version]
TTITLE9=Rollin' And Tumblin' [Early Version]
TTITLE10=Toad [Early Version]
TTITLE11=Sweet Wine [BBC Session 11/8/66]
TTITLE12=Eric Clapton Interview [BBC Session 11/8/66]
TTITLE13=Wrapping Paper [BBC Session 11/8/66]
TTITLE14=Rollin' And Tumblin' [BBC Session 11/8/66]
TTITLE15=Sleepy Time Time [BBC Session 11/8/66]
TTITLE16=Steppin' Out [BBC Session 11/8/66]
TTITLE17=Crossroads [BBC Session 11/28/66]
TTITLE18=Steppin' Out [BBC Session 11/28/66]
TTITLE19=Cat's Squirrel [BBC Session 12/9/66]
TTITLE20=Traintime [BBC Session 12/9/66]
TTITLE21=I'm So Glad [BBC Session 12/9/66]
TTITLE22=Lawdy Mama [BBC Session 12/9/66]
TTITLE23=Eric Clapton Interview #2 [BBC Session 1/10/67]
TTITLE24=I Feel Free [BBC Session 1/10/67]
TTITLE25=N.S.U. [BBC Session 1/10/67]
TTITLE26=Four Until Late [BBC Session 1/10/67]
EXTD=
EXTT0=
EXTT1=
EXTT2=
EXTT3=
EXTT4=
EXTT5=
EXTT6=
EXTT7=
EXTT8=
EXTT9=
EXTT10=
EXTT11=
EXTT12=
EXTT13=
EXTT14=
EXTT15=
EXTT16=
EXTT17=
EXTT18=
EXTT19=
EXTT20=
EXTT21=
EXTT22=
EXTT23=
EXTT24=
EXTT25=
EXTT26=
PLAYORDER=
